<?xml version="1.0" encoding="UTF-8"?> <svg xmlns="http://www.w3.org/2000/svg" width="430" height="180" viewBox="0 0 430 170" fill="none"><rect width="430" height="180" fill="white"></rect><path d="M177.796 96.0298H186.36V98.2656H180.478V100.88H185.81V103.047H180.478V105.902H186.395V108.137H177.83V96.0298H177.796Z" fill="#1D458B"></path><path d="M188.286 103.287C188.286 100.708 189.318 98.3 192.38 98.3C194.031 98.3 194.891 98.9191 195.269 99.5039V94.7571H197.849V108.137H196.748L196.163 106.59C195.544 107.553 194.581 108.309 192.414 108.309C189.422 108.309 188.286 105.867 188.286 103.287ZM195.372 103.287C195.372 101.671 195.097 100.501 193.24 100.501C191.451 100.501 190.969 101.636 190.969 103.287C190.969 104.973 191.451 106.142 193.205 106.142C195.028 106.142 195.372 105.007 195.372 103.287Z" fill="#1D458B"></path><path d="M200.532 103.7V98.4719H203.111V103.941C203.111 105.317 203.352 106.142 204.969 106.142C206.585 106.142 206.964 105.317 206.964 103.941V98.4719H209.544V108.172H208.477L207.892 106.693C207.239 107.69 206.31 108.344 204.212 108.344C201.185 108.309 200.532 106.417 200.532 103.7Z" fill="#1D458B"></path><path d="M211.917 103.322C211.917 100.742 212.949 98.2999 216.801 98.2999C219.863 98.2999 221.342 99.9166 221.342 102.324H218.659C218.521 101.12 218.039 100.467 216.767 100.467C215.081 100.467 214.462 101.636 214.462 103.287C214.462 104.904 215.047 106.074 216.767 106.074C218.039 106.074 218.521 105.386 218.659 104.319L221.342 104.354C221.342 106.727 219.931 108.275 216.87 108.275C212.914 108.309 211.917 105.902 211.917 103.322Z" fill="#1D458B"></path><path d="M223.165 105.282C223.165 103.459 224.368 102.634 227.223 102.393L229.803 102.152C229.769 101.086 229.287 100.295 227.842 100.295C226.467 100.295 226.054 100.914 226.054 101.877L223.474 101.912C223.474 99.9166 224.3 98.2999 227.774 98.2999C231.798 98.2999 232.383 100.089 232.383 102.668V108.172H231.282L230.697 106.624C230.113 107.518 228.978 108.344 227.017 108.344C224.85 108.309 223.165 107.346 223.165 105.282ZM229.769 103.907L227.602 104.147C226.26 104.285 225.847 104.629 225.847 105.145C225.847 105.798 226.363 106.28 227.636 106.28C229.253 106.28 229.769 105.179 229.769 103.907Z" fill="#1D458B"></path><path d="M241.223 104.354L243.906 104.388C243.906 106.486 242.805 107.931 240.432 108.275C240.397 110.889 239.056 111.267 237.68 111.267H236.166V109.169H237.37C237.886 109.169 238.093 108.825 238.093 108.206C235.272 107.724 234.515 105.626 234.515 103.356C234.515 100.776 235.547 98.3342 239.4 98.3342C242.461 98.3342 243.94 99.9509 243.94 102.359H241.257C241.12 101.155 240.638 100.501 239.365 100.501C237.68 100.501 237.061 101.671 237.061 103.322C237.061 104.938 237.645 106.108 239.365 106.108C240.604 106.073 241.085 105.386 241.223 104.354Z" fill="#1D458B"></path><path d="M245.729 105.282C245.729 103.459 246.933 102.634 249.788 102.393L252.367 102.152C252.333 101.086 251.851 100.295 250.407 100.295C249.031 100.295 248.618 100.914 248.618 101.877L246.038 101.912C246.038 99.9165 246.864 98.2999 250.338 98.2999C254.362 98.2999 254.947 100.089 254.947 102.668V108.172H253.846L253.262 106.624C252.677 107.518 251.542 108.344 249.581 108.344C247.414 108.309 245.729 107.346 245.729 105.282ZM249.306 96.6145C248.618 96.6145 248.446 96.924 248.446 97.4744H246.417L246.382 96.9584C246.417 95.8234 246.692 94.6883 248.584 94.6883C249.925 94.6883 250.785 95.5482 251.679 95.5482C252.367 95.5482 252.505 95.2386 252.505 94.6883H254.534L254.569 95.2042C254.534 96.3737 254.225 97.5088 252.367 97.5088C251.06 97.4744 250.166 96.6145 249.306 96.6145ZM252.333 103.907L250.166 104.147C248.824 104.285 248.412 104.629 248.412 105.145C248.412 105.798 248.928 106.28 250.2 106.28C251.817 106.28 252.333 105.179 252.333 103.907Z" fill="#1D458B"></path><path d="M257.045 103.287C257.045 100.742 258.112 98.2999 261.861 98.2999C265.576 98.2999 266.676 100.708 266.676 103.287C266.676 105.902 265.576 108.309 261.826 108.309C258.112 108.309 257.045 105.867 257.045 103.287ZM264.165 103.287C264.165 101.74 263.718 100.501 261.895 100.501C260.107 100.501 259.625 101.705 259.625 103.287C259.625 104.904 260.107 106.074 261.861 106.074C263.615 106.074 264.165 104.904 264.165 103.287Z" fill="#1D458B"></path><path d="M183.024 65.8986C179.171 63.6628 174.39 63.6628 170.538 65.8986H170.503C167.993 67.3432 166.445 70.0605 166.445 72.9499V78.3501C166.445 81.2394 167.993 83.9567 170.503 85.4014L170.538 85.4358C172.464 86.5365 174.597 87.0868 176.764 87.0868C178.931 87.0868 181.063 86.5365 182.989 85.4358L183.024 85.4014C185.535 83.9567 187.083 81.2394 187.083 78.3501V72.9499C187.083 70.0261 185.535 67.3432 183.024 65.8986ZM181.992 78.3157C181.992 79.382 181.407 80.4139 180.478 80.9642L180.444 80.9986C178.174 82.3057 175.353 82.3057 173.118 80.9986L173.083 80.9642C172.154 80.4139 171.57 79.4164 171.57 78.3157V72.9499C171.57 71.8836 172.154 70.8517 173.083 70.3013H173.118C174.253 69.6478 175.525 69.3038 176.798 69.3038C178.071 69.3038 179.343 69.6478 180.478 70.3013L180.513 70.3357C181.442 70.8861 182.026 71.8836 182.026 72.9842V78.3157H181.992Z" fill="black"></path><path d="M228.737 65.8985L228.702 65.8641C224.85 63.6627 220.103 63.6627 216.251 65.8641H216.216C213.705 67.3087 212.158 70.026 212.158 72.9153V78.3156C212.158 81.2049 213.705 83.9222 216.216 85.3669L216.251 85.4013C218.177 86.502 220.31 87.0523 222.477 87.0523C224.644 87.0523 226.776 86.502 228.702 85.4013H228.737C230.457 84.4038 231.764 82.8216 232.383 80.9297L227.533 79.3131C227.292 80.001 226.811 80.6202 226.157 80.9985H226.123C223.852 82.3056 221.032 82.3056 218.796 80.9985L218.762 80.9641C217.833 80.4138 217.248 79.4163 217.248 78.3156V77.9028H232.796V72.9497C232.796 70.026 231.213 67.3431 228.737 65.8985ZM217.248 72.8122C217.283 71.7803 217.867 70.8516 218.762 70.3012H218.796C221.066 68.9941 223.887 68.9941 226.123 70.3012L226.157 70.3356C227.051 70.8516 227.636 71.8147 227.67 72.8466H217.248V72.8122Z" fill="black"></path><path d="M296.498 65.8984C292.646 63.6627 287.865 63.6627 284.012 65.864L283.978 65.8984C281.467 67.3431 279.919 70.0604 279.919 72.9497V78.35C279.919 81.2393 281.467 83.9566 283.978 85.4013L284.012 85.4357C285.938 86.5364 288.071 87.0867 290.238 87.0867C292.405 87.0867 294.538 86.5364 296.464 85.4357L296.498 85.4013C299.009 83.9566 300.557 81.2393 300.557 78.35V72.9497C300.591 70.026 299.009 67.3431 296.498 65.8984ZM295.501 78.3156C295.501 79.3819 294.916 80.4138 293.987 80.9641L293.953 80.9985C291.683 82.3056 288.862 82.3056 286.626 80.9985L286.592 80.9641C285.663 80.4138 285.078 79.4163 285.078 78.3156V72.9497C285.078 71.8834 285.663 70.8515 286.592 70.3012L286.626 70.2668C287.761 69.6133 289.034 69.2693 290.307 69.2693C291.579 69.2693 292.852 69.6133 293.987 70.2668L294.022 70.3012C294.95 70.8515 295.535 71.849 295.535 72.9497V78.3156H295.501Z" fill="black"></path><path d="M159.015 56.3018L158.671 56.0954C154.681 53.7909 149.694 53.7909 145.704 56.0954L145.36 56.3018C142.677 57.8497 141.026 60.739 141.026 63.8003V64.0754V69.8885V86.5364H146.116V77.8341C148.008 78.8316 150.106 79.3475 152.204 79.3475C154.44 79.3475 156.676 78.7628 158.705 77.6277L159.049 77.4213C161.732 75.8735 163.383 72.9842 163.383 69.9229V63.8347C163.349 60.739 161.698 57.8497 159.015 56.3018ZM158.258 69.8885C158.258 71.1611 157.57 72.3306 156.47 72.9842L156.126 73.1905C153.684 74.6008 150.691 74.6008 148.249 73.1905L147.905 72.9842C146.804 72.3306 146.116 71.1611 146.116 69.8885V64.1098V63.8347C146.116 62.562 146.804 61.3925 147.905 60.739L148.249 60.5326C149.453 59.8447 150.829 59.4663 152.17 59.4663C153.546 59.4663 154.887 59.8103 156.091 60.5326L156.435 60.739C157.536 61.3925 158.224 62.562 158.224 63.8347V69.8885H158.258Z" fill="black"></path><path d="M267.02 64.5913C263.821 66.4144 261.861 69.854 261.861 73.5345V86.4676H266.951V73.5345C266.951 71.677 267.949 69.9572 269.566 69.0285C271.182 68.0998 273.177 68.0998 274.794 69.0285L276.239 69.854L278.784 65.4513L277.339 64.6257C274.175 62.7683 270.219 62.7683 267.02 64.5913Z" fill="black"></path><path d="M196.473 80.4826V54.1349H191.382V80.4826C191.382 83.8535 194.134 86.6052 197.505 86.6052H198.846V81.5145H197.505C196.92 81.4801 196.473 81.033 196.473 80.4826Z" fill="black"></path><path d="M208.133 63.5939H203.043V86.7084H208.133V63.5939Z" fill="black"></path><path d="M252.299 65.3826C248.652 63.6971 244.353 63.8347 240.844 65.8641H240.81C238.299 67.3088 236.751 70.0261 236.751 72.9154V78.3157C236.751 81.205 238.299 83.9223 240.81 85.367L240.844 85.4013C242.771 86.502 244.903 87.0524 247.07 87.0524C249.237 87.0524 251.37 86.502 253.296 85.4013H253.33C255.841 83.9567 257.389 81.2394 257.389 78.3501V72.9498C257.389 72.7434 257.355 72.537 257.355 72.3651H257.389V54.3069H252.299V65.3826ZM252.299 78.3157C252.299 79.382 251.714 80.4138 250.785 80.9642H250.751C248.48 82.2713 245.66 82.2713 243.424 80.9642L243.39 80.9298C242.461 80.3795 241.876 79.382 241.876 78.2813V72.9498C241.876 71.8835 242.461 70.8516 243.39 70.3013H243.424C244.559 69.6477 245.832 69.3038 247.105 69.3038C248.377 69.3038 249.65 69.6133 250.751 70.2669L250.785 70.3013C251.714 70.8516 252.299 71.8491 252.299 72.9498V78.3157Z" fill="black"></path><path d="M205.726 54.1349C204.797 54.1349 203.937 54.6164 203.455 55.442C202.974 56.2331 202.974 57.2306 203.455 58.0561C203.937 58.8472 204.762 59.3632 205.726 59.3632C206.654 59.3632 207.514 58.8816 207.996 58.0561C208.477 57.265 208.477 56.2675 207.996 55.442C207.514 54.6164 206.654 54.1349 205.726 54.1349Z" fill="black"></path><path d="M99.165 72.0554L122.899 57.7464L103.74 46.6707C102.226 45.7764 100.334 45.7764 98.7866 46.6707L79.9029 57.712C78.699 58.4344 78.699 60.1886 79.9029 60.8765L99.165 72.0554Z" fill="#1FB4C3"></path><path d="M81.7603 75.8046L99.5433 86.0892C100.678 86.7427 101.366 87.9466 101.366 89.2537V112.162C101.366 113.572 99.8529 114.466 98.6146 113.744L80.8316 103.494C79.6965 102.84 79.0086 101.636 79.0086 100.329V77.3868C79.0086 75.9766 80.522 75.1167 81.7603 75.8046Z" fill="#FAA41F"></path><path d="M122.899 57.7465L99.165 72.0555C100.541 72.8466 101.401 74.3257 101.401 75.9079V100.845L122.933 88.4282C124.446 87.5339 125.41 85.9173 125.41 84.1287V62.0117C125.375 60.2575 124.446 58.6064 122.899 57.7465Z" fill="#EE2252"></path></svg> 